# xmcd CD database file
#
# Track frame offsets:
#	150
#	14430
#	32600
#	53257
#	66425
#	88775
#	112437
#	124752
#	139270
#	153934
#	173875
#	198005
#
# Disc length: 2842 seconds
#
# Revision: 0
# Processed by: cddbd v1.4PL0 Copyright (c) Steve Scherf et al.
# Submitted via: Feurio! 1.65 - http://www.feurio.com
#
DISCID=a10b180c
DTITLE=Jay Hooks - Red Line
DYEAR=2002
DGENRE=Blues Rock
TTITLE0=Burnin' Up
TTITLE1=Last Stand
TTITLE2=Once Around The Moon
TTITLE3=Cold Natured Thang
TTITLE4=Strong Love
TTITLE5=Findin' My Way
TTITLE6=Wicked Wayward Son
TTITLE7=Across The Pond
TTITLE8=Lowlands
TTITLE9=Do Watcha Gotta Do
TTITLE10=Half Hell and Half Voodoo
TTITLE11=Freedom
EXTD=C 2002 Provogue Records
EXTT0=
EXTT1=
EXTT2=
EXTT3=
EXTT4=
EXTT5=
EXTT6=
EXTT7=
EXTT8=
EXTT9=
EXTT10=
EXTT11=
PLAYORDER=
